Coordinates
version=1
nRows=16
nColumns=40
inDegrees=yes
endheader
time	pelvis_tilt	pelvis_list	pelvis_rotation	pelvis_tx	pelvis_ty	pelvis_tz	hip_flexion_r	hip_adduction_r	hip_rotation_r	knee_angle_r	knee_angle_r_beta	ankle_angle_r	subtalar_angle_r	mtp_angle_r	hip_flexion_l	hip_adduction_l	hip_rotation_l	knee_angle_l	knee_angle_l_beta	ankle_angle_l	subtalar_angle_l	mtp_angle_l	lumbar_extension	lumbar_bending	lumbar_rotation	arm_flex_r	arm_add_r	arm_rot_r	elbow_flex_r	pro_sup_r	wrist_flex_r	wrist_dev_r	arm_flex_l	arm_add_l	arm_rot_l	elbow_flex_l	pro_sup_l	wrist_flex_l	wrist_dev_l
1760624771.89659405	     12.12181552	     -1.87154601	      0.19546969	      0.19235758	      0.87220487	     -0.00063876	     80.00000000	     -7.00000000	      0.00000000	     80.00000000	      1.39626340	      0.00000000	      0.00000000	      0.00000000	     80.00000000	     -7.00000000	      0.00000000	     80.00000000	      1.39626340	      0.00000000	      0.00000000	      0.00000000	    -20.94217443	      0.66649659	      2.49607416	      5.14426245	     -2.46014641	      5.04997625	      0.00000000	      3.66671062	    -70.00000021	    -24.99999983	      5.90453898	     -0.81552660	      2.47151116	      0.00000000	     14.64706145	    -70.00000021	    -24.07567762
1760624771.90659404	     12.12343932	     -1.86877954	      0.19546978	      0.19235554	      0.87217021	     -0.00058025	     80.00000000	     -7.00000000	      0.00000000	     80.00000000	      1.39626340	      0.00000000	      0.00000000	      0.00000000	     80.00000000	     -7.00000000	      0.00000000	     80.00000000	      1.39626340	      0.00000000	      0.00000000	      0.00000000	    -20.94115852	      0.66927353	      2.49695939	      5.14461586	     -2.45936790	      5.04993134	      0.00000000	      3.66582367	    -70.00000021	    -24.99999983	      5.90347060	     -0.81539235	      2.47108127	      0.00000000	     14.64729019	    -70.00000021	    -24.07550036
1760624771.91659403	     12.12468310	     -1.86448124	      0.19604560	      0.19229512	      0.87218654	     -0.00052634	     80.00000000	     -7.00000000	      0.00000000	     80.00000000	      1.39626340	      0.00000000	      0.00000000	      0.00000000	     80.00000000	     -7.00000000	      0.00000000	     80.00000000	      1.39626340	      0.00000000	      0.00000000	      0.00000000	    -20.93998118	      0.67306732	      2.49871427	      5.14556414	     -2.45808153	      5.04989707	      0.00000000	      3.66489462	    -70.00000021	    -24.99999983	      5.90183608	     -0.81544907	      2.47061356	      0.00000000	     14.64752392	    -70.00000021	    -24.07530524
1760624771.92659402	     12.13098567	     -1.85376975	      0.19901547	      0.19234011	      0.87213142	     -0.00053930	     80.00000000	     -7.00000000	      0.00000000	     80.00000000	      1.39626340	      0.00000000	      0.00000000	      0.00000000	     80.00000000	     -7.00000000	      0.00000000	     80.00000000	      1.39626340	      0.00000000	      0.00000000	      0.00000000	    -20.93612431	      0.68373111	      2.50863535	      5.14803434	     -2.45542736	      5.04976207	      0.00000000	      3.65925565	    -70.00000021	    -24.99999983	      5.89006839	     -0.82054111	      2.46772390	      0.00000000	     14.64886865	    -70.00000021	    -24.07389692
1760624771.93659401	     12.13144726	     -1.85128814	      0.19987382	      0.19227442	      0.87216058	     -0.00045914	     80.00000000	     -7.00000000	      0.00000000	     80.00000000	      1.39626340	      0.00000000	      0.00000000	      0.00000000	     80.00000000	     -7.00000000	      0.00000000	     80.00000000	      1.39626340	      0.00000000	      0.00000000	      0.00000000	    -20.93566524	      0.68559889	      2.50978164	      5.14791136	     -2.45635179	      5.04980993	      0.00000000	      3.65852541	    -70.00000021	    -24.99999983	      5.88850645	     -0.82085552	      2.46730528	      0.00000000	     14.64903030	    -70.00000021	    -24.07371754
1760624771.94659400	     12.13900448	     -1.84156290	      0.20218797	      0.19233664	      0.87208893	     -0.00048422	     80.00000000	     -7.00000000	      0.00000000	     80.00000000	      1.39626340	      0.00000000	      0.00000000	      0.00000000	     80.00000000	     -7.00000000	      0.00000000	     80.00000000	      1.39626340	      0.00000000	      0.00000000	      0.00000000	    -20.93112295	      0.69574896	      2.51919194	      5.14826791	     -2.46449562	      5.05028733	      0.00000000	      3.65262945	    -70.00000021	    -24.99999983	      5.87857013	     -0.83483047	      2.46474732	      0.00000000	     14.65099577	    -70.00000021	    -24.07248095
1760624771.95659399	     12.14018838	     -1.83868710	      0.20272440	      0.19227756	      0.87213537	     -0.00040431	     80.00000000	     -7.00000000	      0.00000000	     80.00000000	      1.39626340	      0.00000000	      0.00000000	      0.00000000	     80.00000000	     -7.00000000	      0.00000000	     80.00000000	      1.39626340	      0.00000000	      0.00000000	      0.00000000	    -20.93009737	      0.69823190	      2.52038058	      5.14771031	     -2.46656244	      5.05038864	      0.00000000	      3.65193602	    -70.00000021	    -24.99999983	      5.87678850	     -0.83637055	      2.46438869	      0.00000000	     14.65125226	    -70.00000021	    -24.07233504
1760624771.96659398	     12.14913091	     -1.82685892	      0.20476203	      0.19232285	      0.87209146	     -0.00044575	     80.00000000	     -7.00000000	      0.00000000	     80.00000000	      1.39626340	      0.00000000	      0.00000000	      0.00000000	     80.00000000	     -7.00000000	      0.00000000	     80.00000000	      1.39626340	      0.00000000	      0.00000000	      0.00000000	    -20.92377658	      0.71071596	      2.52946689	      5.14900451	     -2.48083121	      5.05191512	      0.00000000	      3.64692674	    -70.00000021	    -24.99999983	      5.86969957	     -0.86035709	      2.46251361	      0.00000000	     14.65370906	    -70.00000021	    -24.07133038
1760624771.97659397	     12.15079805	     -1.82401750	      0.20516722	      0.19226432	      0.87211399	     -0.00036457	     80.00000000	     -7.00000000	      0.00000000	     80.00000000	      1.39626340	      0.00000000	      0.00000000	      0.00000000	     80.00000000	     -7.00000000	      0.00000000	     80.00000000	      1.39626340	      0.00000000	      0.00000000	      0.00000000	    -20.92247788	      0.71326481	      2.53037343	      5.14854190	     -2.48375694	      5.05218331	      0.00000000	      3.64630236	    -70.00000021	    -24.99999983	      5.86840215	     -0.86332886	      2.46220578	      0.00000000	     14.65401203	    -70.00000021	    -24.07118819
1760624771.98659396	     12.16344230	     -1.81415185	      0.20687654	      0.19231761	      0.87212300	     -0.00035892	     80.00000000	     -7.00000000	      0.00000000	     80.00000000	      1.39626340	      0.00000000	      0.00000000	      0.00000000	     80.00000000	     -7.00000000	      0.00000000	     80.00000000	      1.39626340	      0.00000000	      0.00000000	      0.00000000	    -20.91263590	      0.72462970	      2.53732938	      5.14758001	     -2.51478829	      5.05535247	      0.00000000	      3.64012452	    -70.00000021	    -24.99999983	      5.86492913	     -0.89945795	      2.46045281	      0.00000000	     14.65828158	    -70.00000021	    -24.07046610
1760624771.99659395	     12.16440047	     -1.81172441	      0.20763677	      0.19221907	      0.87213155	     -0.00031401	     80.00000000	     -7.00000000	      0.00000000	     80.00000000	      1.39626340	      0.00000000	      0.00000000	      0.00000000	     80.00000000	     -7.00000000	      0.00000000	     80.00000000	      1.39626340	      0.00000000	      0.00000000	      0.00000000	    -20.91187806	      0.72657565	      2.53828992	      5.14738800	     -2.51790207	      5.05565280	      0.00000000	      3.63953992	    -70.00000021	    -24.99999983	      5.86402090	     -0.90240347	      2.46020530	      0.00000000	     14.65865118	    -70.00000021	    -24.07038968
1760624772.00659394	     12.17042505	     -1.80347610	      0.21627894	      0.19222141	      0.87211900	     -0.00029434	     80.00000000	     -7.00000000	      0.00000000	     80.00000000	      1.39626340	      0.00000000	      0.00000000	      0.00000000	     80.00000000	     -7.00000000	      0.00000000	     80.00000000	      1.39626340	      0.00000000	      0.00000000	      0.00000000	    -20.90592735	      0.73310888	      2.54648605	      5.14906406	     -2.55587980	      5.05951638	      0.00000000	      3.63336200	    -70.00000021	    -24.99999983	      5.86491747	     -0.94133745	      2.45853096	      0.00000000	     14.66340449	    -70.00000021	    -24.06979472
1760624772.01659393	     12.17307929	     -1.79528389	      0.22343188	      0.19212397	      0.87215095	     -0.00032379	     80.00000000	     -7.00000000	      0.00000000	     80.00000000	      1.39626340	      0.00000000	      0.00000000	      0.00000000	     80.00000000	     -7.00000000	      0.00000000	     80.00000000	      1.39626340	      0.00000000	      0.00000000	      0.00000000	    -20.90193536	      0.73894619	      2.55285693	      5.15259627	     -2.57851240	      5.06231168	      0.00000000	      3.62708866	    -70.00000021	    -24.99999983	      5.87068390	     -0.95997507	      2.45629343	      0.00000000	     14.66729982	    -70.00000021	    -24.06902036
1760624772.02659392	     12.17392500	     -1.79226754	      0.22481050	      0.19211546	      0.87210549	     -0.00024335	     80.00000000	     -7.00000000	      0.00000000	     80.00000000	      1.39626340	      0.00000000	      0.00000000	      0.00000000	     80.00000000	     -7.00000000	      0.00000000	     80.00000000	      1.39626340	      0.00000000	      0.00000000	      0.00000000	    -20.90134962	      0.74108292	      2.55411799	      5.15357275	     -2.58223804	      5.06274737	      0.00000000	      3.62654794	    -70.00000021	    -24.99999983	      5.87097970	     -0.96259388	      2.45605304	      0.00000000	     14.66772062	    -70.00000021	    -24.06897375
1760624772.03659391	     12.17959363	     -1.78295696	      0.23645130	      0.19211086	      0.87210096	     -0.00025255	     80.00000000	     -7.00000000	      0.00000000	     80.00000000	      1.39626340	      0.00000000	      0.00000000	      0.00000000	     80.00000000	     -7.00000000	      0.00000000	     80.00000000	      1.39626340	      0.00000000	      0.00000000	      0.00000000	    -20.89551026	      0.74662914	      2.56505185	      5.15760962	     -2.62086469	      5.06715597	      0.00000000	      3.62070881	    -70.00000021	    -24.99999983	      5.87544282	     -0.99817535	      2.45395359	      0.00000000	     14.67265797	    -70.00000021	    -24.06865738
1760624772.04659390	     12.18387592	     -1.77449963	      0.24448133	      0.19207835	      0.87206413	     -0.00028739	     80.00000000	     -7.00000000	      0.00000000	     80.00000000	      1.39626340	      0.00000000	      0.00000000	      0.00000000	     80.00000000	     -7.00000000	      0.00000000	     80.00000000	      1.39626340	      0.00000000	      0.00000000	      0.00000000	    -20.89138267	      0.75237766	      2.57385122	      5.16097785	     -2.63809728	      5.07025518	      0.00000000	      3.61588574	    -70.00000021	    -24.99999983	      5.88121128	     -1.01598285	      2.45180319	      0.00000000	     14.67660103	    -70.00000021	    -24.06813365
